<mxfile host="app.diagrams.net" modified="2021-10-27T09:57:01.000Z" agent="5.0 (Macintosh; Intel Mac OS X 10_15_7) AppleWebKit/605.1.15 (KHTML, like Gecko) Version/14.1.2 Safari/605.1.15" etag="TeFz8pV28K-WRouKX0zv" version="15.5.9" type="github">
  <diagram id="wtXEH8R_VSeXp2LK1Ji_" name="Page-1">
    <mxGraphModel dx="946" dy="645" grid="1" gridSize="10" guides="1" tooltips="1" connect="1" arrows="1" fold="1" page="1" pageScale="1" pageWidth="850" pageHeight="1100" math="0" shadow="0">
      <root>
        <mxCell id="0" />
        <mxCell id="1" parent="0" />
        <mxCell id="t5cZ7GZ672l1NrJCJhsD-2" value="" style="rounded=0;whiteSpace=wrap;html=1;" vertex="1" parent="1">
          <mxGeometry x="80" y="40" width="580" height="700" as="geometry" />
        </mxCell>
        <mxCell id="t5cZ7GZ672l1NrJCJhsD-26" value="" style="shape=parallelogram;perimeter=parallelogramPerimeter;whiteSpace=wrap;html=1;fixedSize=1;fillColor=#006666;" vertex="1" parent="1">
          <mxGeometry y="230" width="210" height="150" as="geometry" />
        </mxCell>
        <mxCell id="t5cZ7GZ672l1NrJCJhsD-11" value="" style="rounded=0;whiteSpace=wrap;html=1;" vertex="1" parent="1">
          <mxGeometry x="100" y="120" width="150" height="200" as="geometry" />
        </mxCell>
        <mxCell id="t5cZ7GZ672l1NrJCJhsD-12" value="" style="whiteSpace=wrap;html=1;aspect=fixed;" vertex="1" parent="1">
          <mxGeometry x="265" y="200" width="180" height="180" as="geometry" />
        </mxCell>
        <mxCell id="t5cZ7GZ672l1NrJCJhsD-13" value="" style="rounded=0;whiteSpace=wrap;html=1;" vertex="1" parent="1">
          <mxGeometry x="460" y="110" width="150" height="200" as="geometry" />
        </mxCell>
        <mxCell id="t5cZ7GZ672l1NrJCJhsD-9" value="" style="rounded=1;whiteSpace=wrap;html=1;" vertex="1" parent="1">
          <mxGeometry x="230" y="160" width="260" height="40" as="geometry" />
        </mxCell>
        <mxCell id="t5cZ7GZ672l1NrJCJhsD-17" value="" style="rounded=1;whiteSpace=wrap;html=1;fillColor=#FFF8C7;" vertex="1" parent="1">
          <mxGeometry x="390" y="60" width="140" height="40" as="geometry" />
        </mxCell>
        <mxCell id="t5cZ7GZ672l1NrJCJhsD-20" value="" style="rounded=1;whiteSpace=wrap;html=1;" vertex="1" parent="1">
          <mxGeometry x="260" y="60" width="120" height="40" as="geometry" />
        </mxCell>
        <mxCell id="t5cZ7GZ672l1NrJCJhsD-21" value="" style="rounded=1;whiteSpace=wrap;html=1;" vertex="1" parent="1">
          <mxGeometry x="100" y="60" width="150" height="40" as="geometry" />
        </mxCell>
      </root>
    </mxGraphModel>
  </diagram>
</mxfile>
